HIERARCHY
ROOT Hips
{
	OFFSET 0.000000 0.000000 0.000000
	CHANNELS 6 Xposition Yposition Zposition Xrotation Yrotation Zrotation
	JOINT LeftUpLeg_virtual
	{
		OFFSET 0.000000 0.000000 0.000000
		CHANNELS 3 Xrotation Yrotation Zrotation
		JOINT LeftUpLeg
		{
			OFFSET 11.394100 -6.187798 -0.413800
			CHANNELS 3 Xrotation Yrotation Zrotation
			JOINT LeftLeg
			{
				OFFSET 0.430247 -32.302673 3.732800
				CHANNELS 3 Xrotation Yrotation Zrotation
				JOINT LeftFoot
				{
					OFFSET -0.430247 -48.264931 -6.423300
					CHANNELS 3 Xrotation Yrotation Zrotation
					JOINT LeftToeBase
					{
						OFFSET 4.230900 -16.068199 23.438400
						CHANNELS 3 Xrotation Yrotation Zrotation
						JOINT LeftToe_End
						{
							OFFSET 4.510700 0.695400 19.974600
							CHANNELS 3 Xrotation Yrotation Zrotation
							End Site
							{
								OFFSET 0 0 0
							}
						}
					}
				}
			}
		}
	}
	JOINT RightUpLeg_virtual
	{
		OFFSET 0.000000 0.000000 0.000000
		CHANNELS 3 Xrotation Yrotation Zrotation
		JOINT RightUpLeg
		{
			OFFSET -11.333700 -6.187798 -0.413800
			CHANNELS 3 Xrotation Yrotation Zrotation
			JOINT RightLeg
			{
				OFFSET -0.430392 -32.302628 3.733000
				CHANNELS 3 Xrotation Yrotation Zrotation
				JOINT RightFoot
				{
					OFFSET 0.430392 -48.264973 -6.423500
					CHANNELS 3 Xrotation Yrotation Zrotation
					JOINT RightToeBase
					{
						OFFSET -4.230900 -16.068199 23.438400
						CHANNELS 3 Xrotation Yrotation Zrotation
						JOINT RightToe_End
						{
							OFFSET -4.510700 0.695400 19.974600
							CHANNELS 3 Xrotation Yrotation Zrotation
							End Site
							{
								OFFSET 0 0 0
							}
						}
					}
				}
			}
		}
	}
	JOINT Spine_virtual
	{
		OFFSET 0.000000 0.000000 0.000000
		CHANNELS 3 Xrotation Yrotation Zrotation
		JOINT Spine
		{
			OFFSET -0.002400 12.777504 0.315300
			CHANNELS 3 Xrotation Yrotation Zrotation
			JOINT Spine1
			{
				OFFSET -0.002067 5.816869 0.032633
				CHANNELS 3 Xrotation Yrotation Zrotation
				JOINT Spine1_split
				{
					OFFSET -0.002067 5.816869 0.032633
					CHANNELS 3 Xrotation Yrotation Zrotation
					JOINT Spine2
					{
						OFFSET -0.002067 5.816869 0.032633
						CHANNELS 3 Xrotation Yrotation Zrotation
						JOINT Neck_virtual
						{
							OFFSET 0.000000 0.000000 0.000000
							CHANNELS 3 Xrotation Yrotation Zrotation
							JOINT Neck
							{
								OFFSET -0.003700 21.199493 -0.826900
								CHANNELS 3 Xrotation Yrotation Zrotation
								JOINT Head
								{
									OFFSET 0.000000 20.442200 4.834800
									CHANNELS 3 Xrotation Yrotation Zrotation
									JOINT HeadTop_End
									{
										OFFSET 0.000000 34.668396 4.968400
										CHANNELS 3 Xrotation Yrotation Zrotation
										End Site
										{
											OFFSET 0 0 0
										}
									}
								}
							}
						}
						JOINT LeftShoulder_virtual
						{
							OFFSET 0.000000 0.000000 0.000000
							CHANNELS 3 Xrotation Yrotation Zrotation
							JOINT LeftShoulder
							{
								OFFSET 3.288150 8.794197 -1.372250
								CHANNELS 3 Xrotation Yrotation Zrotation
								JOINT LeftShoulder_split
								{
									OFFSET 3.288150 8.794197 -1.372250
									CHANNELS 3 Xrotation Yrotation Zrotation
									JOINT LeftArm
									{
										OFFSET 11.953299 -2.279007 -0.146200
										CHANNELS 3 Xrotation Yrotation Zrotation
										JOINT LeftForeArm
										{
											OFFSET 18.448900 0.000000 0.000000
											CHANNELS 3 Xrotation Yrotation Zrotation
											JOINT LeftHand
											{
												OFFSET 29.527798 0.000000 0.000000
												CHANNELS 3 Xrotation Yrotation Zrotation
												End Site
												{
													OFFSET 0 0 0
												}
											}
										}
									}
								}
							}
						}
						JOINT RightShoulder_virtual
						{
							OFFSET 0.000000 0.000000 0.000000
							CHANNELS 3 Xrotation Yrotation Zrotation
							JOINT RightShoulder
							{
								OFFSET -3.249400 8.794197 -1.372250
								CHANNELS 3 Xrotation Yrotation Zrotation
								JOINT RightShoulder_split
								{
									OFFSET -3.249400 8.794197 -1.372250
									CHANNELS 3 Xrotation Yrotation Zrotation
									JOINT RightArm
									{
										OFFSET -11.953299 -2.279007 -0.146200
										CHANNELS 3 Xrotation Yrotation Zrotation
										JOINT RightForeArm
										{
											OFFSET -18.448900 0.000000 0.000000
											CHANNELS 3 Xrotation Yrotation Zrotation
											JOINT RightHand
											{
												OFFSET -29.527802 0.000000 0.000000
												CHANNELS 3 Xrotation Yrotation Zrotation
												End Site
												{
													OFFSET 0 0 0
												}
											}
										}
									}
								}
							}
						}
					}
				}
			}
		}
	}
}
MOTION
Frames: 6
Frame Time: 0.03333333
8.054994 94.727142 -5.599010 0.000000 0.000000 0.000000 9.964419 -31.036578 -17.124351 -33.781385 -5.886944 26.577878 38.278743 4.961014 10.296405 -8.412553 28.040391 -15.487005 -0.196448 0.392605 -0.420768 0.000000 0.000000 0.000000 11.939575 -30.391125 -17.810746 -32.395345 -0.396923 21.568989 12.674614 0.349404 3.741967 10.495612 13.037269 -9.431827 -2.451498 4.517325 -2.633018 0.000000 0.000000 0.000000 8.303591 -32.772450 -18.073195 17.139366 -4.618496 14.035295 13.978557 -0.566486 10.455629 1.624128 -1.374842 0.674548 0.000000 0.000000 0.000000 12.732447 -0.705302 9.470549 -9.257408 -6.079974 3.204085 36.645235 -14.515721 30.399444 0.000000 0.000000 0.000000 14.255116 -1.245272 9.624755 2.411785 -19.916017 -11.500480 0.904643 -1.051833 -0.441843 -35.466136 -27.225201 -56.939746 -0.937803 -14.848674 -1.456315 0.000000 0.000000 0.000000 12.313759 -1.056357 9.918482 2.449178 6.864016 11.502600 -4.584833 2.716235 -0.667236 0.515456 40.765455 26.611102 1.789164 22.789416 1.260106 0.000000 0.000000 0.000000 
7.913205 94.727264 -5.562759 0.000000 0.000000 0.000000 9.941234 -30.710545 -17.119584 -33.981151 -5.745202 26.711063 38.290669 4.883279 10.306142 -8.404357 27.721515 -15.461404 -0.093461 0.390539 -0.431667 0.000000 0.000000 0.000000 11.905175 -30.018657 -17.810114 -32.402977 -0.477101 21.537443 12.822199 0.312454 3.746383 10.408370 12.847736 -9.508248 -2.474049 4.487893 -2.664056 0.000000 0.000000 0.000000 8.283141 -32.399911 -18.070746 17.039462 -4.679236 14.174106 13.880602 -0.627462 10.511589 1.609331 -1.382982 0.670682 0.000000 0.000000 0.000000 12.643799 -0.742409 9.520703 -9.139100 -6.026619 3.235434 36.800701 -14.658476 30.406182 0.000000 0.000000 0.000000 14.140510 -1.278975 9.658279 2.389950 -19.942418 -11.618396 0.858842 -1.081450 -0.409846 -35.162890 -27.555461 -57.215610 -1.030141 -15.023175 -1.482533 0.000000 0.000000 0.000000 12.225413 -1.090313 9.960558 2.584065 7.089000 10.973626 -4.499522 2.776824 -0.737163 0.846316 40.515207 26.892521 1.773219 23.282841 1.179804 0.000000 0.000000 0.000000 
7.752245 94.747101 -5.515472 0.000000 0.000000 0.000000 9.909510 -30.291677 -17.097504 -34.142910 -5.659685 26.790640 38.233370 4.790087 10.330820 -8.361089 27.355999 -15.437752 0.025418 0.384399 -0.465575 0.000000 0.000000 0.000000 11.874637 -29.552610 -17.787460 -32.366467 -0.517673 21.482244 12.942795 0.264018 3.734521 10.286223 12.605036 -9.597339 -2.457005 4.446712 -2.659691 0.000000 0.000000 0.000000 8.252989 -31.969582 -18.050686 16.927065 -4.733761 14.317154 13.776431 -0.686346 10.575496 1.589051 -1.396021 0.677143 0.000000 0.000000 0.000000 12.553557 -0.779542 9.579748 -9.033386 -5.988938 3.270163 36.958249 -14.815447 30.401353 0.000000 0.000000 0.000000 14.020295 -1.308307 9.700422 2.374285 -19.953653 -11.726993 0.821825 -1.110532 -0.388963 -34.768545 -27.829676 -57.483200 -1.130581 -15.203472 -1.510730 0.000000 0.000000 0.000000 12.133404 -1.123755 10.008078 2.729490 7.277388 10.439813 -4.410266 2.817597 -0.806098 1.181440 40.309871 27.175533 1.764422 23.790348 1.107151 0.000000 0.000000 0.000000 
7.575449 94.782082 -5.457527 0.000000 0.000000 0.000000 9.874370 -29.791506 -17.068119 -34.246524 -5.647492 26.820684 38.134104 4.693529 10.364514 -8.295299 26.978026 -15.437028 0.152220 0.375756 -0.516086 0.000000 0.000000 0.000000 11.844579 -28.998746 -17.757198 -32.282230 -0.516448 21.413036 13.032311 0.195977 3.712648 10.110744 12.305211 -9.736217 -2.346447 4.396106 -2.618732 0.000000 0.000000 0.000000 8.221432 -31.487718 -18.019163 16.800916 -4.786177 14.468485 13.665875 -0.744074 10.646977 1.562941 -1.409212 0.669898 0.000000 0.000000 0.000000 12.461766 -0.817814 9.648374 -8.944000 -5.967544 3.306834 37.128034 -14.980326 30.387802 0.000000 0.000000 0.000000 13.894374 -1.334542 9.752206 2.367407 -19.944639 -11.814216 0.794875 -1.139413 -0.384304 -34.296890 -28.054613 -57.741183 -1.234032 -15.384935 -1.538628 0.000000 0.000000 0.000000 12.039759 -1.157899 10.060859 2.885368 7.424446 9.895220 -4.330161 2.846301 -0.860058 1.508006 40.148060 27.461389 1.760977 24.303971 1.045995 0.000000 0.000000 0.000000 
7.389752 94.828079 -5.380398 0.000000 0.000000 0.000000 9.830245 -29.235139 -17.048084 -34.275706 -5.718415 26.808504 38.017813 4.609763 10.403968 -8.253508 26.631121 -15.452777 0.283724 0.365036 -0.567291 0.000000 0.000000 0.000000 11.809543 -28.374496 -17.737451 -32.154857 -0.482229 21.338920 13.120092 0.113895 3.693236 9.919268 11.961369 -9.920673 -2.186943 4.342186 -2.554342 0.000000 0.000000 0.000000 8.192676 -30.955155 -17.986497 16.666725 -4.842320 14.636383 13.547725 -0.803099 10.725207 1.523123 -1.442348 0.663364 0.000000 0.000000 0.000000 12.366513 -0.858947 9.726840 -8.869190 -5.964621 3.341638 37.320649 -15.148045 30.375183 0.000000 0.000000 0.000000 13.763273 -1.360366 9.812646 2.370521 -19.909861 -11.874270 0.773648 -1.163166 -0.405991 -33.765576 -28.235222 -57.988675 -1.331176 -15.566305 -1.561726 0.000000 0.000000 0.000000 11.946558 -1.193799 10.119579 3.052149 7.538024 9.338475 -4.260339 2.881884 -0.893743 1.795905 40.014322 27.778016 1.760383 24.792994 0.998493 0.000000 0.000000 0.000000 
7.198317 94.876373 -5.289276 0.000000 0.000000 0.000000 9.776030 -28.640356 -17.053589 -34.215525 -5.847481 26.772141 37.879317 4.561357 10.440962 -8.309168 26.340691 -15.448913 0.422219 0.353751 -0.602961 0.000000 0.000000 0.000000 11.754007 -27.708385 -17.749256 -31.993545 -0.442268 21.269081 13.210815 0.025478 3.686218 9.766958 11.589206 -10.116080 -2.076266 4.287184 -2.489700 0.000000 0.000000 0.000000 8.168289 -30.377738 -17.968648 16.531537 -4.906725 14.826751 13.423377 -0.865779 10.809100 1.496238 -1.484023 0.650308 0.000000 0.000000 0.000000 12.265614 -0.904865 9.814936 -8.808110 -5.978727 3.374850 37.541558 -15.308727 30.372799 0.000000 0.000000 0.000000 13.627233 -1.389561 9.880457 2.382441 -19.849880 -11.906429 0.771730 -1.192399 -0.440570 -33.197810 -28.377286 -58.222363 -1.410391 -15.726927 -1.576658 0.000000 0.000000 0.000000 11.854720 -1.232504 10.185214 3.227720 7.625753 8.776918 -4.205095 2.929894 -0.902512 2.011219 39.884070 28.159535 1.758006 25.245976 0.964116 0.000000 0.000000 0.000000 
